<?xml version="1.0" standalone="no"?><!DOCTYPE svg PUBLIC "-//W3C//DTD SVG 1.1//EN" "http://www.w3.org/Graphics/SVG/1.1/DTD/svg11.dtd"><svg t="1620305025168" class="icon" viewBox="0 0 1024 1024" version="1.1" xmlns="http://www.w3.org/2000/svg" p-id="1807" xmlns:xlink="http://www.w3.org/1999/xlink" width="20" height="20"><defs><style type="text/css"></style></defs><path d="M399.36 875.52c-15.36-5.632-31.744-12.288-49.664-20.992-13.824-6.656-28.672-9.728-44.032-9.728H143.36c-11.264 0-20.48-9.216-20.48-20.48V133.12c0-11.264 9.216-20.48 20.48-20.48h144.384c30.208 0 59.904 8.704 84.992 25.6l43.52 28.672c4.608 3.072 8.704 5.12 13.824 7.168v301.056c17.92-20.992 38.912-39.936 61.44-55.808V175.104c3.584-1.536 7.168-3.072 10.24-5.12l52.224-29.696c32.256-18.432 68.608-27.648 105.984-27.648H798.72c11.264 0 20.48 9.216 20.48 20.48v252.416c21.504 9.216 42.496 20.992 61.44 34.304V133.12c0-45.056-36.864-81.92-81.92-81.92h-138.752c-47.616 0-94.72 12.288-136.192 35.84l-52.224 29.696c-6.656 3.584-14.848 3.584-21.504-0.512L406.528 87.04c-35.328-23.552-76.8-35.84-118.784-35.84H143.36c-45.056 0-81.92 36.864-81.92 81.92v690.688c0 45.056 36.864 81.92 81.92 81.92h162.304c6.144 0 12.288 1.536 17.408 4.096 51.2 24.576 94.72 38.4 130.56 41.984 2.048 0.512 4.608 1.024 7.168 1.024H465.408c-25.6-22.528-48.128-48.64-66.048-77.312z" fill="#8a8a8a" p-id="1808"></path><path d="M686.08 419.84c-152.576 0-276.48 123.904-276.48 276.48s123.904 276.48 276.48 276.48 276.48-123.904 276.48-276.48-123.904-276.48-276.48-276.48z m0 491.52c-118.784 0-215.04-96.256-215.04-215.04s96.256-215.04 215.04-215.04 215.04 96.256 215.04 215.04-96.256 215.04-215.04 215.04z" fill="#8a8a8a" p-id="1809"></path><path d="M798.72 675.84h-81.92v-102.4c0-16.896-13.824-30.72-30.72-30.72s-30.72 13.824-30.72 30.72v133.12c0 16.896 13.824 30.72 30.72 30.72 1.536 0 3.584 0 5.12-0.512 1.536 0.512 3.584 0.512 5.12 0.512h102.4c16.896 0 30.72-13.824 30.72-30.72s-13.824-30.72-30.72-30.72zM317.44 276.48H215.04c-16.896 0-30.72 13.824-30.72 30.72s13.824 30.72 30.72 30.72h102.4c16.896 0 30.72-13.824 30.72-30.72s-13.824-30.72-30.72-30.72zM317.44 481.28H215.04c-16.896 0-30.72 13.824-30.72 30.72s13.824 30.72 30.72 30.72h102.4c16.896 0 30.72-13.824 30.72-30.72s-13.824-30.72-30.72-30.72z" fill="#8a8a8a" p-id="1810"></path></svg>