<?xml version="1.0" standalone="no"?><!DOCTYPE svg PUBLIC "-//W3C//DTD SVG 1.1//EN" "http://www.w3.org/Graphics/SVG/1.1/DTD/svg11.dtd"><svg t="1620305248175" class="icon" viewBox="0 0 1024 1024" version="1.1" xmlns="http://www.w3.org/2000/svg" p-id="2228" xmlns:xlink="http://www.w3.org/1999/xlink" width="20" height="20"><defs><style type="text/css"></style></defs><path d="M209.454545 721.454545H244.363636a34.909091 34.909091 0 0 1 0 69.818182H209.454545v93.207273a58.181818 58.181818 0 0 0 58.181819 58.181818h128v-861.090909H267.636364a58.181818 58.181818 0 0 0-58.181819 58.181818V256H244.363636a34.909091 34.909091 0 0 1 0 69.818182H209.454545v162.909091H244.363636a34.909091 34.909091 0 0 1 0 69.818182H209.454545v162.90909z m-69.818181 69.818182H104.727273a34.909091 34.909091 0 0 1 0-69.818182h34.909091v-162.90909H104.727273a34.909091 34.909091 0 0 1 0-69.818182h34.909091v-162.909091H104.727273a34.909091 34.909091 0 0 1 0-69.818182h34.909091V139.752727A128 128 0 0 1 267.636364 11.752727h558.545454a128 128 0 0 1 128 128v744.727273a128 128 0 0 1-128 128H267.636364a128 128 0 0 1-128-128V791.272727z m302.545454-709.701818v861.090909H826.181818a58.181818 58.181818 0 0 0 58.181818-58.181818v-744.727273a58.181818 58.181818 0 0 0-58.181818-58.181818H442.181818z m196.421818 455.121455a34.909091 34.909091 0 0 0 49.338182 0L663.272727 561.338182l-24.669091-24.669091zM613.888 512l-90.530909-90.530909c-32.907636-32.884364 16.477091-82.269091 49.384727-49.338182L663.272727 462.638545l90.530909-90.530909c32.884364-32.907636 82.269091 16.477091 49.338182 49.384728L712.634182 512l90.530909 90.530909c32.907636 32.884364-16.477091 82.269091-49.384727 49.338182L663.272727 561.361455l-90.530909 90.530909c-32.884364 32.907636-82.269091-16.477091-49.338182-49.384728L613.911273 512zM663.272727 462.638545l24.669091 24.669091a34.909091 34.909091 0 0 0-49.338182 0L663.272727 462.661818z m0 98.72291l24.669091-24.669091h-49.338182L663.272727 561.338182z m0-98.72291l-24.669091 24.669091h49.338182L663.272727 462.661818z" p-id="2229" fill="#409eff"></path></svg>