<?xml version="1.0" standalone="no"?><!DOCTYPE svg PUBLIC "-//W3C//DTD SVG 1.1//EN" "http://www.w3.org/Graphics/SVG/1.1/DTD/svg11.dtd"><svg t="1620781987856" class="icon" viewBox="0 0 1024 1024" version="1.1" xmlns="http://www.w3.org/2000/svg" p-id="6862" xmlns:xlink="http://www.w3.org/1999/xlink" width="32" height="32"><defs><style type="text/css"></style></defs><path d="M0.0512 0m102.4 0l819.0976 0q102.4 0 102.4 102.4l0 819.0976q0 102.4-102.4 102.4l-819.0976 0q-102.4 0-102.4-102.4l0-819.0976q0-102.4 102.4-102.4Z" fill="#ffffff" opacity=".6" p-id="6863" data-spm-anchor-id="a313x.7781069.0.i0" class="selected"></path><path d="M625.792 379.6736l-28.3392 103.04 129.3824-103.04h83.2l-161.3312 132.5312 88.7296 132.2752H654.1312l-73.6-100.0192-27.4944 99.7888h-63.7952l72.576-264.576h63.9744z m-141.7472 0c4.608-0.1024 9.1648 0.9472 13.2352 2.9952l2.9696 1.7408c4.096 2.8416 7.4752 6.5536 9.9584 10.8544l1.664 3.328c2.4832 5.5808 4.096 11.52 4.864 17.5872l0.384 4.5568c0.4864 9.4208-0.6656 18.8416-3.328 27.8784l-8.0896 31.7952c-2.0224 7.68-4.864 15.1552-8.5504 22.1952l-2.8928 5.1968a109.4144 109.4144 0 0 1-12.1344 16.8448l-4.736 5.0944c-4.3008 4.3264-9.0368 8.192-14.1056 11.5456l-5.2224 3.1744c-5.632 3.328-12.032 5.12-18.6112 5.2992h-94.464l16.2304-61.9776h81.408l11.264-42.5216h-116.3008l-51.968 198.9888H224.2048l69.632-264.576h190.208z" fill="#397dfc" p-id="6864"></path></svg>