<?xml version="1.0" standalone="no"?><!DOCTYPE svg PUBLIC "-//W3C//DTD SVG 1.1//EN" "http://www.w3.org/Graphics/SVG/1.1/DTD/svg11.dtd"><svg t="1620819618386" class="icon" viewBox="0 0 1024 1024" version="1.1" xmlns="http://www.w3.org/2000/svg" p-id="1855" width="32" height="32" xmlns:xlink="http://www.w3.org/1999/xlink"><defs><style type="text/css"></style></defs><path d="M512 1024C229.1712 1024 0 794.8288 0 512S229.1712 0 512 0s512 229.1712 512 512-229.1712 512-512 512z m0-975.223467C256.8192 48.776533 48.776533 256.8192 48.776533 512S256.8192 975.223467 512 975.223467 975.223467 767.1808 975.223467 512 767.1808 48.776533 512 48.776533z" p-id="1856" fill="#707070"></path><path d="M549.376 512l198.314667-198.314667c9.728-9.728 9.728-25.975467 0-37.376l-1.6384-1.604266a25.4976 25.4976 0 0 0-35.7376 0L512 474.624l-198.314667-198.314667a25.4976 25.4976 0 0 0-35.7376 0l-1.6384 1.6384c-9.728 9.762133-9.728 26.0096 0 37.376L474.624 512l-198.314667 198.314667c-9.728 9.728-9.728 25.975467 0 37.376l1.6384 1.604266a25.4976 25.4976 0 0 0 35.7376 0L512 549.376l198.314667 198.314667a25.4976 25.4976 0 0 0 35.7376 0l1.6384-1.6384c9.728-9.762133 9.728-26.0096 0-37.376L549.376 512z" p-id="1857" fill="#707070"></path></svg>