<?xml version="1.0" standalone="no"?><!DOCTYPE svg PUBLIC "-//W3C//DTD SVG 1.1//EN" "http://www.w3.org/Graphics/SVG/1.1/DTD/svg11.dtd"><svg t="1620783147756" class="icon" viewBox="0 0 1024 1024" version="1.1" xmlns="http://www.w3.org/2000/svg" p-id="2459" width="128" height="128" xmlns:xlink="http://www.w3.org/1999/xlink"><defs><style type="text/css"></style></defs><path d="M685.869752 290.156213A13.87201 13.87201 0 1 1 671.925492 276.211952a13.87201 13.87201 0 0 1 13.94426 13.944261z" fill="#5FB0E5" p-id="2460"></path><path d="M437.54632 79.547308m-26.226769 0a26.226769 26.226769 0 1 0 52.453539 0 26.226769 26.226769 0 1 0-52.453539 0Z" fill="#5FB0E5" p-id="2461"></path><path d="M434.873069 239.436675a23.625767 23.625767 0 1 1-23.553518-23.553517 23.553517 23.553517 0 0 1 23.553518 23.553517zM772.280816 79.475058a36.775277 36.775277 0 1 1-36.775277-36.847527 36.775277 36.775277 0 0 1 36.775277 36.847527zM621.856205 170.365625a13.94426 13.94426 0 1 1-13.87201-13.87201 13.87201 13.87201 0 0 1 13.87201 13.87201z" fill="#5FB0E5" p-id="2462"></path><path d="M515.720878 906.304664a411.825302 411.825302 0 0 1-336.396247-650.900727L206.346151 274.550201A381.91378 381.91378 0 0 0 166.175122 346.294504a379.674028 379.674028 0 0 0 202.300148 497.008114 382.34728 382.34728 0 0 0 295.213716 0A378.879277 378.879277 0 0 0 830.153108 281.775206l27.52727-18.568263a412.258802 412.258802 0 0 1-341.9595 643.025471z" fill="#0686D8" p-id="2463"></path><path d="M636.811966 785.141325s27.02152 45.445283 11.054259 72.972554-68.78205 26.73252-68.782051 26.732519-26.94927-45.445283-11.054258-72.972553 68.78205-26.73252 68.78205-26.73252zM735.505539 922.488676s-22.903267-51.153037-61.412545-58.161293-78.030057 32.512524-78.030057 32.512524 22.903267 51.080787 61.412545 58.161292 78.030057-32.512524 78.030057-32.512523zM759.059056 687.314753s46.095534 25.865519 46.095534 57.800043-46.240034 57.800042-46.240034 57.800042-46.095534-25.865519-46.023284-57.800042 46.167784-57.800042 46.167784-57.800043zM920.248924 755.302053s-45.373033-32.801524-82.14831-19.724264-51.369788 67.192549-51.369788 67.192549 45.373033 32.873774 82.22056 19.724264 51.297538-67.192549 51.297538-67.192549zM816.425598 548.377902s52.814789-0.65025 68.7098 26.949269-11.343258 72.900303-11.343258 72.900304-52.814789 0.65025-68.63755-26.94927S816.425598 548.377902 816.425598 548.377902zM997.05073 518.17738s-55.704791-5.707754-81.136809 24.059267-10.837508 83.882311-10.837508 83.882312 55.632541 5.780004 81.064559-24.059268S997.05073 518.17738 997.05073 518.17738zM792.944331 393.690538s45.156283-26.94927 72.972553-10.765258 26.66027 68.8543 26.66027 68.854301-45.445283 26.87702-72.972554 10.909758-26.66027-68.998801-26.660269-68.998801zM944.524942 274.550201s-51.080787 22.831017-58.233543 61.340295 32.512524 78.030057 32.512524 78.030057 51.080787-22.831017 58.233543-61.268045-32.512524-78.102307-32.512524-78.102307zM806.888591 156.493615s-32.873774 45.300783-19.796515 82.22056 67.192549 51.442038 67.19255 51.442038 32.873774-45.373033 19.796514-82.220561-67.192549-51.442038-67.192549-51.442037zM394.629789 785.141325s-26.94927 45.445283-11.054258 72.972554 68.78205 26.73252 68.78205 26.732519 27.02152-45.445283 11.054258-72.972553-68.78205-26.73252-68.78205-26.73252zM295.647217 922.488676s22.831017-51.153037 61.340294-58.161293 78.030057 32.512524 78.030058 32.512524-22.831017 51.080787-61.340295 58.161292-78.030057-32.512524-78.030057-32.512523zM272.382699 687.314753s-46.095534 25.865519-46.023283 57.800043 46.167784 57.800042 46.167784 57.800042 46.095534-25.865519 46.023283-57.800042-46.167784-57.800042-46.167784-57.800043zM110.903831 755.302053s45.300783-32.801524 82.22056-19.724264 51.297538 67.192549 51.297538 67.192549-45.300783 32.873774-82.22056 19.724264-51.297538-67.192549-51.297538-67.192549zM215.016157 548.377902s-52.887039-0.65025-68.7098 26.949269 11.271008 72.900303 11.271008 72.900304 52.814789 0.65025 68.709801-26.94927-11.271008-72.900303-11.271009-72.900303zM34.391025 518.17738s55.704791-5.707754 81.06456 24.059267 10.909758 83.882311 10.909758 83.882312-55.704791 5.780004-81.06456-24.059268-10.909758-83.882311-10.909758-83.882311zM238.425175 393.690538S192.690891 366.741269 165.163621 382.92528s-26.66027 68.8543-26.66027 68.854301 45.517533 26.87702 72.972554 10.909758S238.425175 393.690538 238.425175 393.690538zM86.700064 274.550201s51.153037 22.831017 58.305792 61.340295-32.512524 78.030057-32.512524 78.030057-51.080787-22.831017-58.233542-61.268045S86.700064 274.550201 86.700064 274.550201zM239.653426 129.472095s32.873774 45.300783 19.796514 82.14831-67.120299 51.442038-67.120299 51.442038-32.873774-45.300783-19.796515-82.437311 67.120299-51.153037 67.1203-51.153037z" fill="#D2E9F7" p-id="2464"></path><path d="M580.023425 901.46391h-10.476258l-4.696253-8.019756c-3.323502-5.491004-31.428773-54.76554-11.198758-89.734565s77.452057-34.969026 83.376561-35.041276h9.320256l4.696254 8.019756c3.323502 5.491004 31.428773 54.76554 11.198758 89.734566-19.218514 33.379524-71.888803 35.041276-82.22056 35.041275z m46.962534-99.488323c-15.678261 1.372751-37.859028 6.430255-44.578282 17.990264s0 33.451775 6.502504 47.685034c15.678261-1.445001 37.859028-6.430255 44.578283-18.062513s0.07225-33.162774-6.502505-47.612785z" fill="#0686D8" p-id="2465"></path><path d="M666.723488 972.413462a65.025048 65.025048 0 0 1-12.282509-1.083751c-46.529034-8.525506-72.250053-65.025048-73.550554-67.698299l-4.624003-10.404008 8.019756-8.092006c1.878501-1.878501 46.384534-45.589783 92.841318-37.136527s72.250053 65.025048 73.550554 67.6983l4.624003 10.404007-8.019756 8.092006c-1.734001 1.661751-38.726028 38.220278-80.558809 38.220278z m-49.780286-71.672052c8.742256 14.450011 24.637268 34.535525 43.350032 37.931278s40.82128-9.609257 54.187539-20.013265c-8.742256-14.450011-24.709518-34.607775-43.350031-38.075778-20.085515-3.612503-42.121781 10.693008-54.18754 20.157765z" fill="#0686D8" p-id="2466"></path><path d="M758.625556 821.555352l-8.164256-4.551754c-5.563254-3.106752-54.54879-31.790023-54.47654-72.250053s49.130036-68.8543 54.76554-72.250052l8.092006-4.551754 8.092006 4.551754c5.563254 3.106752 54.54879 31.790023 54.47654 72.250052s-49.130036 68.8543-54.69329 72.250053z m0-114.516334c-12.860509 9.031257-29.550272 24.420518-29.550272 37.859028s16.617512 28.900021 29.405772 38.003527c12.860509-9.103507 29.622522-24.492768 29.622521-37.931277s-16.184012-28.900021-29.044521-37.931278z" fill="#0686D8" p-id="2467"></path><path d="M850.238623 842.146617c-36.992027 0-71.527552-24.637268-73.261554-25.937769l-9.248007-6.647005 2.890002-11.054258c0.722501-2.528752 17.267763-62.713046 61.846046-78.535808s95.37007 20.374515 97.465321 21.675016l9.248007 6.719255-2.890002 10.982008c-0.722501 2.601002-17.195513 62.713046-61.846046 78.608058a72.250053 72.250053 0 0 1-24.203767 4.190503z m-43.350032-46.456784c14.450011 8.164256 38.581528 17.629013 56.716292 11.198758s30.634022-28.900021 36.919777-44.506033c-14.450011-8.092006-38.509278-17.556763-56.644042-11.126508s-30.923023 29.044521-37.281027 44.433783z" fill="#0686D8" p-id="2468"></path><path d="M872.852889 664.700487c-9.609257 0-63.002046-1.589501-82.36506-35.330276-20.157765-34.969026 8.092006-84.171312 11.415508-89.662316l4.768504-7.947506h9.248007c6.863755 0 63.218796 0.36125 83.304311 35.258026s-8.164256 84.243562-11.415509 89.734566l-4.768503 7.947506h-9.320257z m-46.890284-99.416073c-6.647005 14.450011-13.43851 36.125026-6.719255 47.540535s28.900021 16.762012 44.506033 18.207013c6.647005-14.450011 13.36626-36.125026 6.719255-47.612785s-28.900021-16.545262-44.506033-17.990263z" fill="#0686D8" p-id="2469"></path><path d="M915.697171 643.025471c-7.225005 0-11.921259-0.4335-12.64376-0.50575l-11.343258-1.156001-3.034502-10.982008c-0.65025-2.528752-16.400762-62.929796 14.45001-98.910323s92.696818-30.056022 95.37007-29.767022l11.415509 1.156001 2.962252 11.054258c0.65025 2.528752 16.400762 62.929796-14.450011 98.910323-22.614267 26.588019-62.424046 30.200522-82.72631 30.200522z m67.264799-108.375079c-16.906512 0-42.266281 4.046003-54.69329 18.640513s-12.065759 40.243279-9.753757 57.005292c16.906512-0.36125 42.266281-4.118253 54.69329-18.712764s11.849009-42.049531 9.753757-56.933041z" fill="#0686D8" p-id="2470"></path><path d="M840.629366 484.075355a57.800042 57.800042 0 0 1-29.333522-7.225006c-34.896776-20.302265-35.041276-77.018556-34.896775-83.448811v-9.248007l7.947505-4.696253c5.491004-3.323502 54.83779-31.356523 89.734566-11.054258s35.041276 77.018556 34.969026 83.376561v9.320257l-7.947506 4.696253a133.518098 133.518098 0 0 1-60.473294 18.279264z m-30.634023-80.558809c1.372751 15.533761 6.430255 37.931278 17.990263 44.433782s33.307274 0 47.612785-6.502505c-1.372751-15.172511-6.430255-37.642278-17.990263-44.072532s-33.379524 0-47.612785 6.213505z" fill="#0686D8" p-id="2471"></path><path d="M915.11917 433.861568l-8.092006-8.092006c-1.878501-1.878501-45.662033-46.312284-37.064277-92.841318s65.386298-72.250053 67.8428-73.478304l10.404007-4.624003 8.092006 8.092006c1.878501 1.806251 45.589783 46.240034 36.992028 92.769068s-65.025048 72.250053-67.77055 73.478303z m25.576519-138.431102c-14.450011 8.742256-34.607775 24.637268-38.075778 43.350032s9.609257 40.89353 20.013265 54.25979c14.450011-8.742256 34.535525-24.637268 38.075778-43.350032s-9.609257-40.89353-20.013265-54.25979z" fill="#0686D8" p-id="2472"></path><path d="M861.003881 309.157976l-11.054258-3.034502c-2.528752-0.65025-62.713046-17.267763-78.463558-61.846045s20.446765-95.37007 21.675016-97.537572l6.719255-9.248006 11.054258 2.962252c2.528752 0.722501 62.640796 17.267763 78.463557 61.918295s-20.446765 95.37007-21.675015 97.537572z m-47.034785-132.723347c-8.164256 14.450011-17.629013 38.653778-11.198758 56.716292s28.900021 30.634022 44.433783 36.992027c8.164256-14.450011 17.629013-38.581528 11.198758-56.716292s-28.755521-30.634022-44.433783-36.992027z" fill="#0686D8" p-id="2473"></path><path d="M451.418331 901.46391c-10.259508 0-62.857546-1.661751-82.220561-35.041275-20.157765-34.896776 7.875256-84.243562 11.198759-89.734566l4.696253-8.019756h9.320257c5.996754 0 63.146546 0 83.376561 35.041276s-8.164256 84.099062-11.126508 89.590065l-4.768504 8.019756h-9.320257zM404.600296 801.975587c-6.574755 14.450011-13.29401 36.125026-6.574754 47.612785s28.900021 16.689762 44.578282 18.062513c6.574755-14.450011 13.22176-36.125026 6.502505-47.685034s-28.900021-16.400762-44.506033-17.990264z" fill="#0686D8" p-id="2474"></path><path d="M364.357017 972.413462c-41.760531 0-78.752558-36.558527-80.486559-38.220278l-8.092006-8.092006 4.696253-10.404007c1.083751-2.456502 27.02152-59.172793 73.550554-67.6983s90.890567 35.258026 92.769068 37.136527l8.381006 8.092006-4.696253 10.404008c-1.083751 2.384252-26.94927 59.172793-73.550554 67.698299a65.025048 65.025048 0 0 1-12.571509 1.083751z m-47.829535-53.754039c13.29401 10.404008 35.474776 23.553517 54.115289 20.013265 19.941015-3.612503 35.547026-24.854018 43.350032-38.075778-13.29401-10.331758-35.402526-23.409017-54.115289-20.013265-19.796514 3.684753-35.402526 24.926268-43.350032 38.075778z" fill="#0686D8" p-id="2475"></path><path d="M272.59945 821.555352l-8.164256-4.551754c-5.563254-3.106752-54.62104-31.573273-54.69329-72.250053s48.913286-69.071051 54.47654-72.250052l8.164255-4.551754 8.092006 4.551754c5.563254 3.106752 54.62104 31.573273 54.69329 72.250052s-48.913286 69.071051-54.476539 72.250053z m0-114.588584c-12.860509 9.103507-29.550272 24.637268-29.550272 38.003528s16.689762 28.900021 29.550272 37.931277c12.860509-9.103507 29.550272-24.565018 29.550271-38.003527s-16.834262-28.900021-29.694771-37.931278z" fill="#0686D8" p-id="2476"></path><path d="M180.625132 842.146617a72.755803 72.755803 0 0 1-24.276017-3.973753c-44.578283-15.895012-61.123545-76.007056-61.773796-78.535808l-2.962252-11.054258 9.248007-6.719255c2.167502-1.517251 52.959289-37.786778 97.537571-21.675016s61.123545 76.007056 61.773796 78.535808l2.962252 11.054258-9.248007 6.647005c-1.445001 1.083751-36.052776 25.721019-73.261554 25.721019z m-50.069286-79.475058c6.358005 15.678261 18.857264 38.075778 36.919777 44.506032 19.146264 6.791505 43.350032-3.829253 56.716291-11.271008-6.069004-15.606011-18.568264-38.292528-36.341776-44.506033s-42.194031 2.890002-57.005292 10.982008z" fill="#0686D8" p-id="2477"></path><path d="M158.299866 664.700487H148.112608l-4.768503-7.947506c-3.251252-5.491004-31.501023-54.69329-11.415508-89.734566s76.223806-35.330276 83.232061-35.258026h9.320256l4.768504 7.947506c3.251252 5.491004 31.501023 54.69329 11.415508 89.734566C221.301912 663.255486 167.836873 664.700487 158.299866 664.700487z m46.962534-99.416073c-15.678261 1.445001-37.859028 6.502505-44.578282 18.134763s0 33.379524 6.647005 47.612785c15.678261-1.445001 37.859028-6.502505 44.578282-18.134763s0-33.307274-6.647005-47.468285z" fill="#0686D8" p-id="2478"></path><path d="M115.600085 643.025471c-20.302265 0-60.112044-3.684753-82.798561-30.272772-30.706272-36.125026-14.955761-96.381571-14.450011-98.910323L21.675016 502.860368l11.343258-1.156001c2.673252 0 65.025048-6.285755 95.44232 29.767022s14.955761 96.381571 14.450011 98.910323l-2.962252 11.054258-11.415509 1.156001C127.376843 643.025471 122.82509 643.025471 115.600085 643.025471zM48.118535 534.650392c-2.312002 16.689762-2.673252 42.338531 9.753757 56.933041s37.859028 18.351513 54.76554 18.712764c2.312002-16.762012 2.673252-42.410781-9.826007-57.005292S65.025048 534.650392 48.118535 534.650392z" fill="#0686D8" p-id="2479"></path><path d="M190.52339 484.075355A133.518098 133.518098 0 0 1 130.050095 465.796091l-7.947506-4.696253v-9.320257c0-6.358005 0-63.146546 34.896776-83.376561s84.243562 7.730756 89.806816 11.054258l7.947506 4.696253v9.248007c0 6.430255 0 63.146546-34.896776 83.448811a57.800042 57.800042 0 0 1-29.333521 7.225006z m-35.041276-42.483032c14.450011 6.574755 36.125026 13.22176 47.685035 6.502505s16.617512-28.900021 17.990263-44.578282c-14.450011-6.574755-36.125026-13.29401-47.612785-6.502505s-16.689762 29.261271-18.062513 44.650532z" fill="#0686D8" p-id="2480"></path><path d="M116.033585 433.500318l-10.476258-4.624004c-2.384252-1.083751-59.172793-26.94927-67.770549-73.478304s35.185776-90.962817 37.064277-92.769068l8.092006-8.092006 10.404007 4.624004c2.456502 1.083751 59.172793 26.94927 67.77055 73.478304s-35.185776 90.962817-37.064277 92.841318z m-25.576519-138.069852c-10.404008 13.36626-23.481267 35.402526-20.013264 54.25979s24.926268 35.547026 38.075777 43.350032c10.404008-13.29401 23.481267-35.330276 20.013265-54.18754s-23.625767-34.680025-38.075778-43.422282z" fill="#0686D8" p-id="2481"></path><path d="M185.610386 281.775206l-6.719255-9.248006c-1.517251-2.167502-37.786778-52.887039-22.036266-97.537572s75.934806-61.195795 78.535807-61.846045l10.982008-2.962252 6.502505 9.537007c1.517251 2.095252 37.786778 52.887039 21.675016 97.465321s-75.934806 61.195795-78.535807 61.918295z m46.890284-132.651097C216.750159 155.771114 194.569393 168.342623 187.850138 186.405137s3.106752 41.905031 11.271008 56.716291c15.678261-6.358005 38.003528-18.929514 44.433782-36.992027 7.008255-19.146264-3.612503-43.277782-11.054258-56.716292z" fill="#0686D8" p-id="2482"></path><path d="M708.484019 562.611162H322.813236l-47.468284-213.860157a5.346504 5.346504 0 0 1 8.092006-5.635504l116.394835 76.729557 112.565582-81.57031a5.418754 5.418754 0 0 1 6.430255 0l101.872575 81.425809 127.449093-77.452056a5.274254 5.274254 0 0 1 7.947506 5.707754z" fill="#FFFFFF" p-id="2483"></path><path d="M721.778029 579.228674H309.519227l-50.575037-226.865166a21.675016 21.675016 0 0 1 33.451774-23.120017l106.713328 70.371552L502.643618 325.125238a21.675016 21.675016 0 0 1 26.51577 0.650251l92.769068 73.839554 117.623086-71.383053a21.675016 21.675016 0 0 1 24.131517 0.939251 21.675016 21.675016 0 0 1 8.670007 22.542017z m-385.598533-33.235024h359.010513l39.015029-175.712129-114.877584 69.721301L515.142877 356.770761 400.265293 440.002822l-102.667325-67.698299z" fill="#0686D8" p-id="2484"></path><path d="M312.481479 595.412686h406.478798V628.57546H312.481479z" fill="#0686D8" p-id="2485"></path><path d="M315.949481 651.839977h406.478798v33.162775H315.949481z" fill="#0686D8" p-id="2486"></path><path d="M354.726085 506.357271l21.255965-21.241516 23.445143 23.452367-21.263191 21.241516z" fill="#0686D8" p-id="2487"></path><path d="M425.762337 506.451196l21.255965-21.255966 23.445143 23.452368-21.248741 21.24874z" fill="#0686D8" p-id="2488"></path><path d="M496.791364 506.523446l21.270415-21.241516 23.437918 23.459593-21.270416 21.241515z" fill="#0686D8" p-id="2489"></path><path d="M567.943216 506.458421l21.248741-21.255966 23.452367 23.452368-21.255966 21.255965z" fill="#0686D8" p-id="2490"></path><path d="M639.008368 506.458421l21.263191-21.241516 23.437917 23.466818-21.263191 21.241515z" fill="#0686D8" p-id="2491"></path></svg>