<?xml version="1.0" standalone="no"?><!DOCTYPE svg PUBLIC "-//W3C//DTD SVG 1.1//EN" "http://www.w3.org/Graphics/SVG/1.1/DTD/svg11.dtd"><svg t="1620783161851" class="icon" viewBox="0 0 1024 1024" version="1.1" xmlns="http://www.w3.org/2000/svg" p-id="2905" xmlns:xlink="http://www.w3.org/1999/xlink" width="128" height="128"><defs><style type="text/css"></style></defs><path d="M507.484372 532.84414m-289.433712 0a289.433712 289.433712 0 1 0 578.867424 0 289.433712 289.433712 0 1 0-578.867424 0Z" fill="#E9EAEB" p-id="2906"></path><path d="M650.250476 910.711917l-12.282509-29.694772a370.426021 370.426021 0 0 0 115.600085-609.501446l22.253016-23.192267A402.577295 402.577295 0 0 1 650.250476 910.711917z" fill="#0686d8" p-id="2907"></path><path d="M873.64764 757.903055a205.4069 205.4069 0 0 1-30.923023-2.456502l-15.895011-2.456501 2.384251-15.895012c7.225005-47.251535 27.02152-85.182812 57.294292-109.67558a137.275101 137.275101 0 0 1 109.964581-27.382771l15.895011 2.456502-2.384251 15.895012c-8.886757 58.378043-31.067523 99.054823-65.892049 120.874338a130.050095 130.050095 0 0 1-70.443801 18.640514z m-9.392507-32.440274a104.112326 104.112326 0 0 0 62.713046-13.366259c23.409017-14.450011 39.520779-42.121781 48.118535-81.71481a101.150074 101.150074 0 0 0-68.34855 22.108516 130.483596 130.483596 0 0 0-42.483031 72.972553zM803.059338 908.905666c-29.261271 0-59.317293-11.415508-89.445565-34.102025L700.825513 865.194384l9.681507-12.64376c28.900021-38.220278 64.158047-62.207296 102.450575-69.4323a137.275101 137.275101 0 0 1 109.820081 28.03302l12.860509 9.681507-9.681507 12.86051c-35.474776 47.179285-74.345304 72.250053-115.600084 75.212305q-3.540253 0.07225-7.297256 0z m-56.210541-50.575037a104.040076 104.040076 0 0 0 61.557045 17.990263c27.52727-1.878501 54.76554-18.351513 81.13681-49.130036a102.089325 102.089325 0 0 0-70.660552-12.93276 130.483596 130.483596 0 0 0-72.033303 44.361533zM877.476893 579.734425l-1.661752-16.184012c-9.970507-95.65907 41.11028-166.175122 127.160094-174.917378l15.967261-1.661752 1.661752 15.967262c10.909758 104.618077-33.018274 165.091371-127.160094 174.917378zM989.825725 423.45756c-53.898539 12.427009-84.677062 56.644041-83.232061 120.151838 59.750794-11.632259 86.555563-50.286037 83.232061-120.151838zM858.547379 425.408312L850.166373 411.825302c-50.213787-82.00381-34.318775-167.475623 39.520779-212.704156l13.72751-8.381006 8.381006 13.72751c54.91004 89.734566 41.25478 163.28512-39.520779 212.704156z m34.318775-189.511889c-43.350032 34.391025-52.020038 87.567064-23.409017 144.500106 48.768786-36.269527 56.282791-82.726311 23.409017-144.427856zM789.765328 287.04946l-15.606011-3.973753c-93.202568-23.914768-141.465604-96.309321-120.007338-180.119382l3.973753-15.606011 15.606011 3.973753c101.944825 26.154519 143.488605 88.434065 120.007338 180.119382zM682.185 127.232343c-7.225005 54.91004 23.842517 99.127073 83.882311 119.862838 9.826007-59.967544-17.195513-98.476822-83.882311-119.862838zM373.099273 910.711917a402.577295 402.577295 0 0 1-125.570592-662.388485l22.253017 23.192267a370.426021 370.426021 0 0 0 115.600084 609.501446z" fill="#0686d8" p-id="2908"></path><path d="M149.70211 757.903055a130.050095 130.050095 0 0 1-70.227052-18.568263c-34.824526-21.675016-57.005292-62.568546-65.892048-120.874339l-2.384252-15.895012 15.895012-2.456501a137.275101 137.275101 0 0 1 109.96458 27.38277c30.272772 24.492768 50.069287 62.351796 57.294292 109.67558l2.384252 15.895012-15.895012 2.456501a205.33465 205.33465 0 0 1-31.139772 2.384252z m-101.150074-127.521343c8.597756 39.593029 24.709518 67.048049 48.118535 81.71481a103.895576 103.895576 0 0 0 62.279545 13.366259 130.411346 130.411346 0 0 0-42.483031-72.972553 101.583574 101.583574 0 0 0-68.20405-22.108516zM220.362661 908.905666h-7.225005c-41.03803-2.745502-79.836308-28.105271-115.600085-75.212305l-9.681507-12.86051 12.86051-9.681507a137.275101 137.275101 0 0 1 109.82008-28.03302c38.220278 7.225005 73.695054 31.212023 102.450575 69.4323l9.681507 12.86051-12.860509 9.681507c-30.128272 22.397516-60.184294 33.813025-89.445566 33.813025z m-86.700063-81.49806c26.371269 30.778523 53.609539 47.323785 81.136809 49.130036a104.256826 104.256826 0 0 0 61.557045-17.990263 130.483596 130.483596 0 0 0-72.250053-44.144783 101.944825 101.944825 0 0 0-70.227051 13.07726zM145.945107 579.734425L130.050095 578.000423C36.125026 568.174416-8.236506 507.701122 2.745502 403.083045l1.661751-15.967261 15.967262 1.661751c86.049813 9.031257 137.275101 79.475058 127.160093 174.989628zM33.451775 423.45756c-3.106752 69.865801 23.625767 108.375079 83.23206 120.151838 1.372751-63.507797-29.333521-107.724829-83.23206-120.151838zM164.874621 425.408312l-13.72751-8.381007c-80.775559-49.419036-94.430819-122.82509-39.520779-212.704155l8.381006-13.72751 13.72751 8.381006C207.502152 244.205179 223.397164 329.676991 173.400127 411.825302z m-34.318775-189.439639c-32.873774 61.701545-25.359769 108.375079 23.481267 144.500106 28.538771-56.933042 19.868765-110.109081-23.481267-144.500106zM233.584421 287.12171l-3.973753-15.606011c-23.409017-91.685317 18.062513-154.037113 120.079588-180.119382l15.606012-3.973753 3.973752 15.606011c21.675016 83.882311-26.80477 156.276864-120.079587 180.119382z m107.652579-159.889367c-66.686799 21.675016-93.925069 59.967544-83.882312 119.862838 60.039794-20.735765 90.962817-64.952798 83.882312-119.862838z" fill="#0686d8" p-id="2909"></path><path d="M459.293586 709.71227v225.058915l48.263036-48.190786 48.190785 48.190786V709.71227H459.293586z" fill="#A3D4FF" p-id="2910"></path><path d="M266.385945 355.976011h482.341353v369.775771H266.385945z" fill="#FFFFFF" p-id="2911"></path><path d="M764.76681 741.863543H250.274183V339.575249h514.492627z m-482.341353-32.151273h450.19008V372.087773H282.425457z" fill="#0686d8" p-id="2912"></path><path d="M443.181825 973.641713V709.71227h32.151273v186.260636l32.151274-32.151273 32.223523 32.151273-0.07225-186.260636h32.223524v263.929443l-64.374797-64.302547-64.302547 64.302547z" fill="#0686d8" p-id="2913"></path><path d="M507.484372 693.672758m-80.414309 0a80.414309 80.414309 0 1 0 160.828618 0 80.414309 80.414309 0 1 0-160.828618 0Z" fill="#A3D4FF" p-id="2914"></path><path d="M507.484372 790.126579A96.453821 96.453821 0 1 1 604.010442 693.600508a96.598321 96.598321 0 0 1-96.52607 96.526071z m0-160.756368a64.302547 64.302547 0 1 0 64.302547 64.302547 64.374797 64.374797 0 0 0-64.302547-64.374797zM378.879277 452.502081h257.210189v32.151274h-257.210189zM427.142313 516.804629h160.756368v32.151273H427.142313z" fill="#0686d8" p-id="2915"></path></svg>