<?xml version="1.0" standalone="no"?><!DOCTYPE svg PUBLIC "-//W3C//DTD SVG 1.1//EN" "http://www.w3.org/Graphics/SVG/1.1/DTD/svg11.dtd"><svg t="1620783156483" class="icon" viewBox="0 0 1024 1024" version="1.1" xmlns="http://www.w3.org/2000/svg" p-id="2728" xmlns:xlink="http://www.w3.org/1999/xlink" width="128" height="128"><defs><style type="text/css"></style></defs><path d="M788.320327 94.575319a28.900021 28.900021 0 1 1-28.900021-28.900021 28.900021 28.900021 0 0 1 28.900021 28.900021zM77.018556 811.657094a28.900021 28.900021 0 1 1-28.900021-28.900021 28.900021 28.900021 0 0 1 28.900021 28.900021zM893.588654 263.784943a14.450011 14.450011 0 1 1-14.45001-14.45001 14.450011 14.450011 0 0 1 14.45001 14.45001zM215.955408 840.773866a14.450011 14.450011 0 1 1-14.45001-14.450011 14.450011 14.450011 0 0 1 14.45001 14.450011zM1008.104988 123.692091a17.990263 17.990263 0 1 1-18.279263-17.990264 18.062513 18.062513 0 0 1 18.279263 17.990264zM174.267128 923.933677a17.990263 17.990263 0 1 1-17.990264-17.990263 17.990263 17.990263 0 0 1 17.990264 17.990263z" fill="#5FB0E5" p-id="2729"></path><path d="M965.621957 449.756579l-36.486276 89.879066 36.486276 89.879066H684.930502V449.756579h280.691455z" fill="#D2E9F7" p-id="2730"></path><path d="M990.909476 646.493474H667.879489V432.777817h323.029987l-43.350032 106.857828z m-289.000212-33.957525h238.425175l-29.550272-72.900304 29.550272-72.900303h-238.425175z" fill="#0686D8" p-id="2731"></path><path d="M47.901785 449.756579l36.486277 89.879066-36.486277 89.879066h280.763706V449.756579H47.901785z" fill="#D2E9F7" p-id="2732"></path><path d="M345.644253 646.493474H22.686517l43.350031-106.857829-43.350031-106.857828h322.957736z m-272.527199-33.957525h238.425174V466.735342h-238.425174l29.622521 72.900303z" fill="#0686D8" p-id="2733"></path><path d="M767.006562 572.87067l-33.740775 50.069286a59.823044 59.823044 0 0 0-9.031257 21.675016l-11.560008 59.245044a59.461794 59.461794 0 0 1-47.034784 46.962534l-59.245044 11.560008a60.473294 60.473294 0 0 0-21.675016 9.103507L534.650392 805.29909a59.461794 59.461794 0 0 1-66.397799 0l-50.069287-33.668525a60.256544 60.256544 0 0 0-21.675016-9.103507l-59.245043-11.560008a59.389543 59.389543 0 0 1-46.962534-46.962534l-11.560009-59.245044a59.823044 59.823044 0 0 0-9.031256-21.675016l-33.740775-50.069286a59.534044 59.534044 0 0 1 0-66.470049l33.740775-50.069287a59.823044 59.823044 0 0 0 9.031256-21.675016l11.560009-59.245043a59.534044 59.534044 0 0 1 46.962534-47.034784l59.245043-11.560009a58.883793 58.883793 0 0 0 21.675016-9.031256l50.069287-33.668525a59.172793 59.172793 0 0 1 66.397799 0l50.069286 33.668525a59.100543 59.100543 0 0 0 21.675016 9.031256l59.317294 11.632259a59.461794 59.461794 0 0 1 46.962534 46.962534l11.560008 59.245043a59.823044 59.823044 0 0 0 9.031257 21.675016l33.740775 50.069287a59.534044 59.534044 0 0 1 0 66.325549z" fill="#FFFFFF" p-id="2734"></path><path d="M501.270867 832.53736a76.512806 76.512806 0 0 1-42.699781-13.14951l-50.069287-33.668525a41.905031 41.905031 0 0 0-15.606011-6.502504l-59.245044-11.560009a76.151556 76.151556 0 0 1-60.401044-60.401044l-11.560008-59.245043a42.338531 42.338531 0 0 0-6.430255-15.606012l-33.740775-50.069286a76.368306 76.368306 0 0 1 0-85.399563l33.740775-50.069287a42.338531 42.338531 0 0 0 6.430255-15.606011l11.560008-59.245044a76.296056 76.296056 0 0 1 60.401044-60.473294l59.245044-11.487758a41.905031 41.905031 0 0 0 15.606011-6.502505L458.571086 260.100191a76.223806 76.223806 0 0 1 85.471812 0l50.069287 33.668524a42.121781 42.121781 0 0 0 15.533762 6.502505l59.245043 11.560008a76.151556 76.151556 0 0 1 60.834544 60.184294l11.560009 59.245044a42.338531 42.338531 0 0 0 6.430255 15.606011l33.740774 50.069287a76.079306 76.079306 0 0 1 0 85.399563l-33.740774 50.069286a42.338531 42.338531 0 0 0-6.430255 15.606012l-11.560009 59.245043a76.151556 76.151556 0 0 1-60.473294 60.401044l-59.245043 11.560009a42.121781 42.121781 0 0 0-15.533762 6.502504l-50.069286 33.668525a76.585056 76.585056 0 0 1-43.133282 13.14951z m0-551.773654a42.555281 42.555281 0 0 0-23.698017 7.225005l-50.069287 33.668525a75.140055 75.140055 0 0 1-28.10527 11.632258l-59.245044 11.560009a42.338531 42.338531 0 0 0-33.524024 33.596274l-11.560009 59.245044a76.729556 76.729556 0 0 1-11.632258 28.03302l-33.740775 50.141537a42.410781 42.410781 0 0 0 0 47.468285l33.740775 50.069286a77.596557 77.596557 0 0 1 11.632258 28.105271l11.560009 59.245043a42.266281 42.266281 0 0 0 33.524024 33.524025l59.245044 11.560008a76.512806 76.512806 0 0 1 28.10527 11.704509l50.069287 33.668524a42.410781 42.410781 0 0 0 47.468285 0l50.069286-33.668524a76.151556 76.151556 0 0 1 28.033021-11.704509l59.245043-11.487758A42.410781 42.410781 0 0 0 695.98476 700.825513l11.560008-59.245043a77.596557 77.596557 0 0 1 11.632259-28.105271l33.740774-49.924786a42.410781 42.410781 0 0 0 0-47.468285l-33.740774-50.069287a75.140055 75.140055 0 0 1-11.632259-28.10527l-11.560008-59.172794a42.338531 42.338531 0 0 0-33.596275-33.596274l-59.245043-11.560009a74.851055 74.851055 0 0 1-28.033021-11.632258l-50.069286-33.668525a42.627531 42.627531 0 0 0-23.770268-7.514005z" fill="#0686D8" p-id="2735"></path><path d="M501.288917 539.629315m-146.932102 117.504437a188.139138 188.139138 0 1 0 293.864204-235.008873 188.139138 188.139138 0 1 0-293.864204 235.008873Z" fill="#D2E9F7" p-id="2736"></path><path d="M582.552177 668.096239L505.24462 628.57546a4.840754 4.840754 0 0 0-4.768503 0l-76.296056 41.616031a5.129754 5.129754 0 0 1-7.225006-5.346504l13.58301-85.688563a5.202004 5.202004 0 0 0-1.589501-4.479503l-62.857546-59.750794a5.129754 5.129754 0 0 1 2.384252-8.814506l85.616313-13.58301a5.274254 5.274254 0 0 0 3.901502-2.890002l37.353278-78.246808a5.129754 5.129754 0 0 1 9.248007 0l39.376278 77.307557a5.129754 5.129754 0 0 0 3.901503 2.745502l85.977563 11.343258a5.129754 5.129754 0 0 1 2.962252 8.742257l-61.268044 61.340295a5.202004 5.202004 0 0 0-1.445002 4.624003l15.750512 85.255062a5.129754 5.129754 0 0 1-7.297255 5.346504z" fill="#5FB0E5" p-id="2737"></path><path d="M421.723559 687.820504a22.325266 22.325266 0 0 1-12.716009-4.046003 21.675016 21.675016 0 0 1-9.103507-21.675016l12.571509-79.475058L354.025259 527.425386a22.108516 22.108516 0 0 1 11.776759-37.931277l79.475058-12.57151 34.752276-72.683553a22.108516 22.108516 0 0 1 39.665279-0.4335L556.325407 475.260848l79.475059 10.548508a22.180766 22.180766 0 0 1 12.788259 37.570027l-56.933042 57.005292 14.450011 79.475058a22.108516 22.108516 0 0 1-31.790023 23.770268l-71.744303-36.558527-70.805052 38.437028a21.675016 21.675016 0 0 1-10.042757 2.312002z m-26.87702-168.703874l45.517534 43.350032a22.108516 22.108516 0 0 1 6.647004 19.507514l-9.826007 61.990546L492.384111 614.12545a21.675016 21.675016 0 0 1 20.446765 0l56.066041 28.900021-11.415509-61.629295a22.036266 22.036266 0 0 1 6.069005-20.663515l44.433782-44.361533-62.207295-8.236506a22.036266 22.036266 0 0 1-16.834263-11.849009L500.403867 440.725323l-27.02152 56.571791a22.036266 22.036266 0 0 1-16.473012 12.354759z" fill="#0686D8" p-id="2738"></path><path d="M484.364355 148.907359h33.957525v58.089043h-33.957525z" fill="#0686D8" p-id="2739"></path><path d="M557.604233 212.198405l15.042461-56.102166 32.801524 8.792832-15.042461 56.109391z" fill="#0686D8" p-id="2740"></path><path d="M627.072659 232.912496l29.044522-50.538912 29.550271 16.978762-29.044521 50.538912z" fill="#0686D8" p-id="2741"></path><path d="M687.842179 277.671403l41.15363-40.99468 23.965342 24.059268-41.15363 40.99468z" fill="#0686D8" p-id="2742"></path><path d="M735.866789 333.181119l50.394412-28.900021 16.892062 29.449121-50.387187 28.900022z" fill="#0686D8" p-id="2743"></path><path d="M767.729062 399.398293l56.167191-14.818486 8.684457 32.902674-56.167191 14.811261z" fill="#0686D8" p-id="2744"></path><path d="M169.895999 410.0913l9.168532-32.591999 55.762591 15.678262-9.168532 32.606449z" fill="#0686D8" p-id="2745"></path><path d="M202.372398 327.91409l17.484513-29.196246 49.830862 29.846497-17.484513 29.189021z" fill="#0686D8" p-id="2746"></path><path d="M253.901136 255.765187l24.413293-23.604092 40.380554 41.760531-24.413292 23.604092z" fill="#0686D8" p-id="2747"></path><path d="M322.502561 199.489621l29.694772-16.458562 28.155846 50.813462-29.694772 16.458562z" fill="#0686D8" p-id="2748"></path><path d="M403.314245 162.923869l32.95325-8.200381 14.023735 56.376717-32.953249 8.193156z" fill="#0686D8" p-id="2749"></path><path d="M484.364355 875.815141h33.957525v58.089043h-33.957525z" fill="#0686D8" p-id="2750"></path><path d="M557.568108 870.605913l32.801524-8.800057 15.049686 56.102166-32.801524 8.800057z" fill="#0686D8" p-id="2751"></path><path d="M627.065434 846.532195l29.369647-17.036562 29.152896 50.242686-29.369646 17.043788z" fill="#0686D8" p-id="2752"></path><path d="M687.856629 805.24129l23.950892-24.073718 41.175306 40.98023-23.950893 24.066493z" fill="#0686D8" p-id="2753"></path><path d="M735.917364 749.630424l16.884837-29.463572 50.394412 28.892797-16.884837 29.456346z" fill="#0686D8" p-id="2754"></path><path d="M767.786862 683.434926l8.684457-32.902675 56.167191 14.811261-8.684457 32.909899z" fill="#0686D8" p-id="2755"></path><path d="M171.261525 671.896592l55.878191-15.887787 9.284132 32.664249-55.878191 15.887787z" fill="#0686D8" p-id="2756"></path><path d="M202.256798 754.955253l49.859762-29.803147 17.426712 29.145671-49.859761 29.810372z" fill="#0686D8" p-id="2757"></path><path d="M253.872236 827.082481l40.38778-41.746081 24.406067 23.611317-40.387779 41.746081z" fill="#0686D8" p-id="2758"></path><path d="M322.495336 883.321922l28.134171-50.820687 29.709222 16.444112-28.134171 50.820687z" fill="#0686D8" p-id="2759"></path><path d="M403.299795 919.764849l13.994836-56.383942 32.953249 8.185931-13.994835 56.376717z" fill="#0686D8" p-id="2760"></path></svg>