<?xml version="1.0" standalone="no"?><!DOCTYPE svg PUBLIC "-//W3C//DTD SVG 1.1//EN" "http://www.w3.org/Graphics/SVG/1.1/DTD/svg11.dtd"><svg t="1620731180040" class="icon" viewBox="0 0 1024 1024" version="1.1" xmlns="http://www.w3.org/2000/svg" p-id="13482" xmlns:xlink="http://www.w3.org/1999/xlink" width="200" height="200"><defs><style type="text/css"></style></defs><path d="M512 64C264.512 64 64 264.576 64 512s200.512 448 448 448c247.424 0 448-200.576 448-448S759.424 64 512 64zM712.448 664.512c-11.776 0-22.784-3.072-32.448-8.384l-1.984 1.984L511.936 512l-162.112 145.472-1.344-1.344c-9.6 5.248-20.544 8.32-32.192 8.32-36.736 0-66.496-29.76-66.496-66.432 0-11.712 3.072-22.656 8.32-32.192L255.936 563.584l10.752-9.664c3.328-3.712 7.04-7.104 11.136-9.984l188.544-169.216 1.28 0C479.296 363.456 495.168 356.544 512.64 356.544s33.408 6.912 45.12 18.176l0.768 0 191.872 168.832c4.032 2.816 7.68 6.08 11.072 9.728l11.392 10.048-2.368 2.304c5.376 9.6 8.448 20.672 8.448 32.448C778.88 634.752 749.12 664.512 712.448 664.512z" p-id="13483" fill="#dbdbdb"></path></svg>