<?xml version="1.0" standalone="no"?><!DOCTYPE svg PUBLIC "-//W3C//DTD SVG 1.1//EN" "http://www.w3.org/Graphics/SVG/1.1/DTD/svg11.dtd"><svg t="1620739276837" class="icon" viewBox="0 0 1024 1024" version="1.1" xmlns="http://www.w3.org/2000/svg" p-id="5869" xmlns:xlink="http://www.w3.org/1999/xlink" width="200" height="200"><defs><style type="text/css"></style></defs><path d="M511.874862 1023.99912A511.99883 511.99883 0 0 1 312.62052 40.495165a512.00083 512.00083 0 0 1 398.508684 943.276183A508.89462 508.89462 0 0 1 511.874862 1023.99912z m0-968.688722c-251.896958 0-456.823858 204.9269-456.823858 456.81386s204.9269 456.81386 456.81386 456.813861 456.81386-204.9269 456.813861-456.813861-204.916902-456.81386-456.803863-456.81386z" p-id="5870" fill="#f79e6c"></path><path d="M511.510954 611.676948a254.735237 254.735237 0 0 0-233.940523 153.719919 27.522003 27.522003 0 0 0 50.519156 21.853444 199.816199 199.816199 0 0 1 367.444582 1.464627 27.530001 27.530001 0 0 0 50.710107-21.450546 254.385326 254.385326 0 0 0-234.733322-155.587444z" p-id="5871" fill="#f79e6c"></path><path d="M271.047089 384.671662a50.981039 50.981039 0 1 0 50.981039-50.981039 50.981039 50.981039 0 0 0-50.981039 50.981039z" p-id="5872" fill="#f79e6c"></path><path d="M650.730559 384.671662a50.981039 50.981039 0 1 0 50.981039-50.981039 50.981039 50.981039 0 0 0-50.981039 50.981039z" p-id="5873" fill="#f79e6c"></path></svg>