<?xml version="1.0" standalone="no"?><!DOCTYPE svg PUBLIC "-//W3C//DTD SVG 1.1//EN" "http://www.w3.org/Graphics/SVG/1.1/DTD/svg11.dtd"><svg t="1620738998209" class="icon" viewBox="0 0 1024 1024" version="1.1" xmlns="http://www.w3.org/2000/svg" p-id="4547" xmlns:xlink="http://www.w3.org/1999/xlink" width="200" height="200"><defs><style type="text/css"></style></defs><path d="M513.028 63.766c-247.628 0-448.369 200.319-448.369 447.426S265.4 958.617 513.028 958.617s448.369-200.319 448.369-447.426S760.655 63.766 513.028 63.766z m-0.203 823.563c-207.318 0-375.382-167.71-375.382-374.592s168.064-374.592 375.382-374.592 375.382 167.71 375.382 374.592-168.064 374.592-375.382 374.592z" p-id="4548" fill="#f79e6c"></path><path d="M514.029 767.816c-99.337 0-188.031-54.286-251.889-146.146-10.647-16.703-7.1-33.399 7.094-45.93 14.192-12.529 28.384-8.349 39.025 8.349 49.67 75.164 124.174 116.92 205.77 116.92s163.199-45.93 209.316-125.268c10.647-16.703 24.833-16.703 39.025-8.349 14.194 12.524 14.194 29.227 7.094 45.93-60.312 96.035-152.553 154.494-255.435 154.494z m-49.737-364.857l-45.151-45.151-0.05 0.05-90.45-90.45-45.15 45.15 90.45 90.45-90.45 90.451 45.15 45.15 90.45-90.45 0.05 0.05 45.151-45.151-0.05-0.05z m92.319 0l45.151-45.151 0.05 0.05 90.45-90.45 45.15 45.15-90.45 90.45 90.45 90.451-45.15 45.15-90.45-90.45-0.05 0.05-45.151-45.151 0.05-0.05z" p-id="4549" fill="#f79e6c"></path></svg>