<?xml version="1.0" standalone="no"?><!DOCTYPE svg PUBLIC "-//W3C//DTD SVG 1.1//EN" "http://www.w3.org/Graphics/SVG/1.1/DTD/svg11.dtd"><svg t="1620739176401" class="icon" viewBox="0 0 1024 1024" version="1.1" xmlns="http://www.w3.org/2000/svg" p-id="4893" xmlns:xlink="http://www.w3.org/1999/xlink" width="200" height="200"><defs><style type="text/css"></style></defs><path d="M958.2 324.7c-24.3-57.5-59.2-109.2-103.5-153.6-44.4-44.4-96-79.2-153.6-103.5-59.6-25.2-122.9-38-188.1-38s-128.5 12.8-188.1 38c-57.5 24.3-109.2 59.2-153.6 103.5-44.4 44.4-79.2 96-103.5 153.6-25.2 59.6-38 122.9-38 188.1s12.8 128.5 38 188.1c24.3 57.5 59.2 109.2 103.5 153.6 44.4 44.4 96 79.2 153.6 103.5 59.6 25.2 122.9 38 188.1 38s128.5-12.8 188.1-38c57.5-24.3 109.2-59.2 153.6-103.5s79.2-96 103.5-153.6c25.2-59.6 38-122.9 38-188.1s-12.8-128.5-38-188.1zM513 924c-226.7 0-411.2-184.5-411.2-411.2S286.3 101.6 513 101.6s411.2 184.5 411.2 411.2S739.7 924 513 924z" p-id="4894" fill="#f79e6c"></path><path d="M694.9 624.2c-18.9-6.2-39.2 4.1-45.4 23-19.3 59.1-74.1 98.8-136.4 98.8-59.3 0-113.2-37.2-134.2-92.7-7-18.6-27.8-28-46.4-20.9-18.6 7-28 27.8-20.9 46.4 15.3 40.5 42.2 75.1 77.7 100.1 36.4 25.6 79.2 39.1 123.8 39.1 46.3 0 90.5-14.5 127.7-41.9 36.4-26.9 63.1-63.7 77.1-106.5 6.2-18.9-4.1-39.2-23-45.4zM350 554.1c19.9 0 36-16.1 36-36V334.4c0-19.9-16.1-36-36-36s-36 16.1-36 36v183.7c0 19.9 16.1 36 36 36zM674.1 554.1c19.9 0 36-16.1 36-36V334.4c0-19.9-16.1-36-36-36s-36 16.1-36 36v183.7c0 19.9 16.1 36 36 36z" p-id="4895" fill="#f79e6c"></path></svg>