<?xml version="1.0" standalone="no"?><!DOCTYPE svg PUBLIC "-//W3C//DTD SVG 1.1//EN" "http://www.w3.org/Graphics/SVG/1.1/DTD/svg11.dtd"><svg t="1620739231809" class="icon" viewBox="0 0 1024 1024" version="1.1" xmlns="http://www.w3.org/2000/svg" p-id="5471" xmlns:xlink="http://www.w3.org/1999/xlink" width="200" height="200"><defs><style type="text/css"></style></defs><path d="M511.957333 9.173333C234.112 9.173333 8.106667 235.178667 8.106667 513.024s226.005333 503.893333 503.850666 503.893333 503.850667-226.048 503.850667-503.893333c0-277.845333-226.005333-503.850667-503.850667-503.850667z m0 965.077334c-254.293333 0-461.184-206.933333-461.184-461.226667 0-254.293333 206.890667-461.184 461.184-461.184s461.184 206.890667 461.184 461.184c0 254.293333-206.890667 461.226667-461.184 461.226667z" p-id="5472" fill="#f79e6c"></path><path d="M469.461333 407.338667c0-57.557333-46.805333-104.362667-104.362666-104.362667S260.693333 349.781333 260.693333 407.338667s46.848 104.405333 104.405334 104.405333 104.362667-46.848 104.362666-104.405333z m-166.101333 0c0-34.005333 27.690667-61.696 61.738667-61.696 34.005333 0 61.696 27.690667 61.696 61.696 0 34.048-27.690667 61.738667-61.696 61.738666A61.781333 61.781333 0 0 1 303.36 407.338667zM659.797333 302.976c-57.557333 0-104.362667 46.805333-104.362666 104.362667s46.848 104.405333 104.362666 104.405333 104.362667-46.848 104.362667-104.405333-46.848-104.362667-104.362667-104.362667z m0 166.101333a61.781333 61.781333 0 0 1 0-123.434666 61.738667 61.738667 0 0 1 0 123.434666zM649.386667 681.813333H374.528a21.333333 21.333333 0 0 0 0 42.666667h274.816a21.333333 21.333333 0 0 0 0.042667-42.666667z" p-id="5473" fill="#f79e6c"></path></svg>