<?xml version="1.0" standalone="no"?><!DOCTYPE svg PUBLIC "-//W3C//DTD SVG 1.1//EN" "http://www.w3.org/Graphics/SVG/1.1/DTD/svg11.dtd"><svg t="1620456573491" class="icon" viewBox="0 0 1024 1024" version="1.1" xmlns="http://www.w3.org/2000/svg" p-id="1788" xmlns:xlink="http://www.w3.org/1999/xlink" width="200" height="200"><defs><style type="text/css"></style></defs><path d="M388.544 614.848a192 192 0 0 0 271.36 0.128l271.808-271.808a192 192 0 0 0-271.552-271.552L524.352 207.552a32 32 0 0 0 45.248 45.248l135.808-135.808a127.68 127.68 0 0 1 180.992 0 127.68 127.68 0 0 1 0 181.056L614.848 569.6c-49.92 49.92-130.624 50.304-180.992 0a32 32 0 1 0-45.248 45.248z" fill="#52bdf7" p-id="1789"></path><path d="M614.848 388.544a192 192 0 0 0-271.424-0.128l-271.808 271.808a192 192 0 0 0 271.552 271.552l135.872-135.936a32 32 0 1 0-45.248-45.248L298.048 886.4c-49.984 49.92-130.688 50.304-181.056 0a127.68 127.68 0 0 1 0-181.056l271.552-271.552a127.68 127.68 0 0 1 180.992 0 32 32 0 1 0 45.312-45.248z" fill="#52bdf7" p-id="1790"></path></svg>