<?xml version="1.0" standalone="no"?><!DOCTYPE svg PUBLIC "-//W3C//DTD SVG 1.1//EN" "http://www.w3.org/Graphics/SVG/1.1/DTD/svg11.dtd"><svg t="1620724209267" class="icon" viewBox="0 0 1024 1024" version="1.1" xmlns="http://www.w3.org/2000/svg" p-id="12381" xmlns:xlink="http://www.w3.org/1999/xlink" width="200" height="200"><defs><style type="text/css"></style></defs><path d="M710.5 636.2c-8.8 0-17.8-2.8-25.3-8.7-17.8-14-21-39.7-7-57.6l169.2-216c39-49.8 30.2-122-19.6-161l-19.4-15.2c-49.8-39-122-30.2-161 19.6l-169.2 216c-32.8 41.8-32.1 102.1 1.6 143.4 14.3 17.5 11.7 43.4-5.8 57.7-17.5 14.3-43.4 11.7-57.7-5.8-27.8-34-43.5-77.1-44.3-121.3-0.8-45 14-89.2 41.6-124.5l169.2-216c67-85.5 190.8-100.6 276.2-33.7l19.4 15.2C963.8 195.2 978.8 319 912 404.4l-169.2 216c-8.1 10.4-20.2 15.8-32.3 15.8z" p-id="12382" fill="#cb9347"></path><path d="M286 953.3c-42.4 0-85.1-13.6-121.1-41.8l-19.4-15.2c-41.2-32.3-67.4-78.8-73.8-131.1s7.9-103.8 40.2-145l169.2-216c14-17.8 39.7-21 57.6-7 17.8 14 21 39.7 7 57.6l-169.2 216c-18.8 24-27.1 54-23.4 84.5 3.7 30.5 19 57.7 42.9 76.5l19.4 15.2c20.9 16.4 45.8 24.3 70.6 24.3 34.1 0 67.8-15.1 90.4-43.9l169.2-216c34.2-43.7 31.7-107.5-5.9-148.4-15.3-16.7-14.2-42.6 2.4-57.9 16.7-15.3 42.6-14.2 57.9 2.4 31.2 33.9 49.5 78.1 51.6 124.5 2.1 47-12.6 93.1-41.5 129.9L441.1 878c-38.8 49.4-96.6 75.3-155.1 75.3z" p-id="12383" fill="#cb9347"></path></svg>