<?xml version="1.0" standalone="no"?><!DOCTYPE svg PUBLIC "-//W3C//DTD SVG 1.1//EN" "http://www.w3.org/Graphics/SVG/1.1/DTD/svg11.dtd"><svg t="1620707992104" class="icon" viewBox="0 0 1024 1024" version="1.1" xmlns="http://www.w3.org/2000/svg" p-id="1404" xmlns:xlink="http://www.w3.org/1999/xlink" width="200" height="200"><defs><style type="text/css"></style></defs><path d="M127.763969 533.456803V354.362417a30.583605 30.583605 0 0 0-61.100433 0v216.155305a210.345756 210.345756 0 0 0 61.100433-37.060919zM926.54363 323.845588a30.516829 30.516829 0 0 0-30.516829 30.516829v381.827629l-384.164804 221.764525-384.098028-221.764525V635.09053C104.726101 632.686579 77.61487 607.712194 66.663536 596.493753v157.32527a30.516829 30.516829 0 0 0 15.291802 26.710573l414.614857 239.393503a30.717158 30.717158 0 0 0 30.583605 0l414.614856-239.393503a30.516829 30.516829 0 0 0 15.291803-26.710573V354.362417a30.583605 30.583605 0 0 0-30.516829-30.516829z" fill="#397DFC" p-id="1405"></path><path d="M871.987286 202.980249L532.162032 4.453921a32.520122 32.520122 0 0 0-32.854004 0L162.821595 199.307545a38.930659 38.930659 0 0 0 0 67.444195l31.184593 17.96286A270.244214 270.244214 0 0 0 170.434108 340.606472a41.735269 41.735269 0 0 0-7.545736 76.459013c-0.534211 46.743501-2.136846 97.894247-27.845772 125.205807a244.201406 244.201406 0 0 1-61.100434 48.880347s46.743501 50.88364 77.393883 38.663553 56.960295-56.960295 61.033658-146.908147a390.575342 390.575342 0 0 0-3.205269-70.382358 41.735269 41.735269 0 0 0-3.272045-67.177089 108.778805 108.778805 0 0 1 12.620745-33.388215l4.206915-7.47896c0.534211-0.868094 43.137574-56.092202 87.343571-73.454073A400.658583 400.658583 0 0 1 387.190402 206.586176s-61.033657 20.032929-91.617263 44.806985c-25.44182 20.032929-38.262895 30.850711-50.950416 62.636292l253.750435 148.71111a32.453345 32.453345 0 0 0 32.586898 0l340.559795-195.988823a36.927366 36.927366 0 0 0 0.467435-63.771491z" fill="#397DFC" p-id="1406"></path><path d="M226.926969 460.804047v205.270747a36.326378 36.326378 0 0 0 18.096412 31.451699l252.815566 145.973276a36.393155 36.393155 0 0 0 36.326378 0l252.748789-145.973276a36.393155 36.393155 0 0 0 18.163189-31.451699V460.804047a36.259602 36.259602 0 0 0-54.489567-31.384923L534.098549 555.292696a36.326378 36.326378 0 0 1-36.459931 0L281.14943 429.619454A36.259602 36.259602 0 0 0 226.926969 460.804047zM244.956605 314.496888l20.366811 12.220086a264.501441 264.501441 0 0 1 40.733623-59.030364c24.774056-26.710572 64.706361-56.158978 80.131716-60.098788-34.323085 4.073362-122.935408 47.878701-141.23215 106.909066z" fill="#397DFC" p-id="1407"></path></svg>