<?xml version="1.0" standalone="no"?><!DOCTYPE svg PUBLIC "-//W3C//DTD SVG 1.1//EN" "http://www.w3.org/Graphics/SVG/1.1/DTD/svg11.dtd"><svg t="1620719992846" class="icon" viewBox="0 0 1024 1024" version="1.1" xmlns="http://www.w3.org/2000/svg" p-id="5260" xmlns:xlink="http://www.w3.org/1999/xlink" width="200" height="200"><defs><style type="text/css"></style></defs><path d="M713.2405 353.93916L277.986702 549.976229l182.384676 27.869225 93.767596 307.9373 101.458091-301.481517z" fill="#64ed95" p-id="5261"></path><path d="M500.129121 929.032969c-4.762463-4.762463-7.937438-11.041858-8.784097-18.026802l-37.958591-318.732215-317.003617-36.335825c-13.54656-1.55221-24.517863-12.029628-26.705068-25.470356-2.187205-13.440728 4.868295-26.881455 17.21542-32.666965l719.661006-337.782065c11.641575-5.468013 25.54091-3.033865 34.642505 6.06773 9.101595 9.101595 11.535743 23.00093 6.06773 34.642505l-337.782065 719.661006c-5.78551 12.311848-19.19096 19.367348-32.59641 17.21542-6.526338-1.023048-12.311848-4.127468-16.756813-8.572433z m1.234713-384.912805c4.727185 4.727185 7.866883 10.971303 8.713542 17.991525l28.610053 240.169222L798.541496 248.706377l-552.798429 259.466014 237.452854 27.23423c7.090778 0.811383 13.40545 3.986358 18.167913 8.713543z m-24.976471 50.7996h-0.035277c0-0.035278 0.035278 0 0.035277 0zM871.953974 214.240259l-0.070555 0.035278c0.035278-0.035278 0.070555-0.035278 0.070555-0.035278z" fill="#64ed95" p-id="5262"></path></svg>