<?xml version="1.0" standalone="no"?><!DOCTYPE svg PUBLIC "-//W3C//DTD SVG 1.1//EN" "http://www.w3.org/Graphics/SVG/1.1/DTD/svg11.dtd"><svg t="1620548988830" class="icon" viewBox="0 0 1024 1024" version="1.1" xmlns="http://www.w3.org/2000/svg" p-id="759" xmlns:xlink="http://www.w3.org/1999/xlink" width="32" height="32"><defs><style type="text/css"></style></defs><path d="M452.1 794.6c-81.8 0-158.7-31.9-216.5-89.7-57.8-57.8-89.7-134.7-89.7-216.5s31.9-158.7 89.7-216.5c57.8-57.8 134.7-89.7 216.5-89.7 81.8 0 158.7 31.9 216.5 89.7 57.8 57.8 89.7 134.7 89.7 216.5S726.4 647 668.6 704.9c-57.9 57.8-134.8 89.7-216.5 89.7z m0-572.5c-146.8 0-266.2 119.4-266.2 266.2 0 146.8 119.4 266.2 266.2 266.2s266.2-119.4 266.2-266.2c0-146.7-119.5-266.2-266.2-266.2z" fill="#1296db" p-id="760"></path><path d="M883.9 931.3c-13.5 13.5-35.3 13.5-48.8 0l-218-218 48.8-48.8 218 218c13.5 13.5 13.5 35.4 0 48.8zM673.3 488.4h-0.5c-10.2 0-18.7-7.7-19.6-17.9-0.4-4.4-0.9-8.7-1.6-13-1.5-10 4.9-19.6 14.8-22l0.5-0.1c11.3-2.8 22.5 4.8 24.2 16.3 0.8 5 1.4 10.1 1.8 15.2 1 11.4-8 21.5-19.6 21.5zM626.3 386.4c-32.9-56-91.4-93.2-156.1-99.1-10.2-0.9-18.1-9.4-18.1-19.7v-0.6c0-11.5 9.8-20.7 21.3-19.7 39.2 3.4 76.8 16.3 109.9 37.7 32 20.7 58.5 48.5 77.5 81.1 5.9 10 2 23-8.6 27.9l-0.5 0.2c-9.2 4.6-20.2 1.1-25.4-7.8z" fill="#1296db" p-id="761"></path></svg>