<?xml version="1.0" standalone="no"?><!DOCTYPE svg PUBLIC "-//W3C//DTD SVG 1.1//EN" "http://www.w3.org/Graphics/SVG/1.1/DTD/svg11.dtd"><svg t="1620443121660" class="icon" viewBox="0 0 1025 1024" version="1.1" xmlns="http://www.w3.org/2000/svg" p-id="4766" xmlns:xlink="http://www.w3.org/1999/xlink" width="200.1953125" height="200"><defs><style type="text/css"></style></defs><path d="M144.360575 858.016856a26.872371 26.872371 0 0 1-20.843533-9.838331 509.190825 509.190825 0 0 1-42.579381-59.693501 27.06685 27.06685 0 0 1 46.251595-28.130763 447.941495 447.941495 0 0 0 38.117812 53.401545 27.135489 27.135489 0 0 1-3.546375 38.083493 28.153642 28.153642 0 0 1-17.400118 6.177557z m0 0" p-id="4767" fill="#1bdfd4"></path><path d="M512.394231 1023.99865a509.316664 509.316664 0 0 1-295.344406-93.544223 27.00965 27.00965 0 1 1 31.139461-44.11233 455.983758 455.983758 0 0 0 264.262145 83.602933c252.707826-0.03432 458.420461-205.541037 458.420461-458.054384S765.159256 53.870582 512.394231 53.870582 54.042409 259.491698 54.042409 512.005045a455.857919 455.857919 0 0 0 18.429711 128.767736 27.07829 27.07829 0 0 1-51.971555 15.215093A512.508401 512.508401 0 0 1 0.000229 512.005045C0.000229 229.644948 229.873975 0 512.50863 0s512.508401 229.644948 512.508402 512.005045-229.942385 511.993605-512.622801 511.993605z m0 0" p-id="4768" fill="#1bdfd4"></path><path d="M760.674808 235.090349h-99.824739a68.948396 68.948396 0 0 0-64.738506-45.759678H458.775328a68.914076 68.914076 0 0 0-64.669866 45.58808l-99.870499 0.148718a41.595548 41.595548 0 0 0-41.492589 41.526909v511.673287a41.595548 41.595548 0 0 0 41.492589 41.458269h466.439845a41.595548 41.595548 0 0 0 41.492588-41.458269V276.594378a41.595548 41.595548 0 0 0-41.492588-41.458269z m-324.79076 22.87984a22.879839 22.879839 0 0 1 22.87984-22.87984H596.134443a22.879839 22.879839 0 1 1 0 45.759679H458.775328a22.879839 22.879839 0 0 1-22.87984-22.879839z m320.50079 496.915791a29.171795 29.171795 0 0 1-29.114596 29.091715H327.639528a29.171795 29.171795 0 0 1-29.114595-29.091715v-445.012876a29.171795 29.171795 0 0 1 29.114595-29.091715l66.351534-0.13728a68.959836 68.959836 0 0 0 64.749946 45.885518h137.393435a68.959836 68.959836 0 0 0 64.738506-45.759678h66.465933a29.171795 29.171795 0 0 1 29.114595 29.091715v445.012876z m0 0" p-id="4769" fill="#1bdfd4"></path><path d="M687.69956 372.312186H367.198771a22.879839 22.879839 0 1 0 0 45.759679h320.500789a22.879839 22.879839 0 1 0 0-45.759679zM619.025722 486.665623a22.948479 22.948479 0 0 0-22.879839-22.879839H367.198771a22.879839 22.879839 0 1 0 0 45.759678H596.134443a22.959919 22.959919 0 0 0 22.879839-22.879839zM604.073747 664.270376z" p-id="4770" fill="#1bdfd4"></path><path d="M432.543592 568.701287v-15.764209h83.259735v-11.38272h28.039243v11.38272h83.259736v15.764209h-83.259736v13.133028h62.221723v107.741163H631.483795v15.75277H428.162103v-15.75277h25.419501V581.834315h62.221723v-13.133028z m-0.869434 175.968844V730.66767q36.813662-5.250923 52.62363-19.264825h33.301607q-21.953206 28.897237-85.925237 33.267286z m49.065815-147.952481v12.252154h98.154511v-12.252154z m0 26.311815v13.121588h98.154511v-13.167347z m0 26.311816v13.133027h98.154511v-13.235987z m0 26.311815v13.922382h98.154511v-14.071101z m147.231767 69.165754q-64.864345-4.392929-86.760351-33.267286h34.18248q15.775649 14.013902 52.62363 19.264825z" p-id="4771" fill="#1bdfd4"></path></svg>