<?xml version="1.0" standalone="no"?><!DOCTYPE svg PUBLIC "-//W3C//DTD SVG 1.1//EN" "http://www.w3.org/Graphics/SVG/1.1/DTD/svg11.dtd"><svg t="1620439762477" class="icon" viewBox="0 0 1024 1024" version="1.1" xmlns="http://www.w3.org/2000/svg" p-id="17835" xmlns:xlink="http://www.w3.org/1999/xlink" width="200" height="200"><defs><style type="text/css"></style></defs><path d="M580.2496 942.1824H266.1376c-73.5232 0-133.12-59.5968-133.12-133.12V223.8464c0-73.5232 59.5968-133.12 133.12-133.12h457.472c73.5232 0 133.12 59.5968 133.12 133.12v331.1104l-276.48 387.2256z" fill="#80B7F9" p-id="17836" data-spm-anchor-id="a313x.7781069.0.i0" class="selected"></path><path d="M658.8416 332.3904h-325.12c-22.6304 0-40.96-18.3296-40.96-40.96s18.3296-40.96 40.96-40.96h325.12c22.6304 0 40.96 18.3296 40.96 40.96s-18.3296 40.96-40.96 40.96zM658.8416 494.7968h-325.12c-22.6304 0-40.96-18.3296-40.96-40.96s18.3296-40.96 40.96-40.96h325.12c22.6304 0 40.96 18.3296 40.96 40.96s-18.3296 40.96-40.96 40.96zM533.7088 657.2032H333.7216c-22.6304 0-40.96-18.3296-40.96-40.96s18.3296-40.96 40.96-40.96h199.9872c22.6304 0 40.96 18.3296 40.96 40.96s-18.3296 40.96-40.96 40.96z" fill="#FFFFFF" p-id="17837"></path><path d="M681.728 912.2816l-91.3408 28.9792c-23.6544 7.5264-47.7696-10.0352-47.9232-34.8672l-0.5632-91.904c-0.0512-7.5776 2.2528-15.0016 6.6048-21.248l192.7168-276.9408a36.80768 36.80768 0 0 1 51.2512-9.1648l91.392 63.5904a36.80768 36.80768 0 0 1 9.1648 51.2512l-192.2048 276.224a37.04832 37.04832 0 0 1-19.0976 14.08z" fill="#80B7F9" p-id="17838"></path><path d="M856.7296 554.9056v-3.072l-64.3072-44.7488c-16.6912-11.6224-39.6288-7.4752-51.2512 9.1648l-192.7168 276.9408a36.74112 36.74112 0 0 0-6.6048 21.248l0.5632 91.904c0.1024 18.2272 13.1584 32.4608 29.44 35.7888h8.3968l276.48-387.2256z" fill="#3E8BF8" p-id="17839"></path></svg>