<?xml version="1.0" standalone="no"?><!DOCTYPE svg PUBLIC "-//W3C//DTD SVG 1.1//EN" "http://www.w3.org/Graphics/SVG/1.1/DTD/svg11.dtd"><svg t="1621069109339" class="icon" viewBox="0 0 1024 1024" version="1.1" xmlns="http://www.w3.org/2000/svg" p-id="10042" width="128" height="128" xmlns:xlink="http://www.w3.org/1999/xlink"><defs><style type="text/css"></style></defs><path d="M30.676 1000.5096l81.4176 0L112.0936 37.06 30.676 37.06 30.676 1000.5096zM451.336 91.3384 315.6392 91.3384l0 135.6984L451.336 227.0368 451.336 91.3384zM722.732 159.1872 722.732 37.06 587.0344 64.2l0 135.6968 135.6976-27.1384 0 122.1272 135.696 0L858.428 159.1872 722.732 159.1872zM315.6392 362.7328l0 135.6984L451.336 498.4312 451.336 362.7328 315.6392 362.7328zM179.9424 199.8968l0 135.6976 135.6976 27.1384 0-135.696L179.9424 199.8968zM179.9424 606.988l135.6976 27.1392L315.64 498.4312l-135.6976-27.14L179.9424 606.988zM587.0344 335.5944 587.0344 199.8968 451.336 227.0368l0 135.696L587.0344 335.5944zM451.336 634.1272l135.6984-27.1392L587.0344 471.2904 451.336 498.4312 451.336 634.1272zM722.732 308.4536l-135.6976 27.14 0 135.6968 135.6976-27.1384 0 122.1272 135.696 0L858.428 430.5824l-135.696 0L722.732 308.4536zM994.1232 50.6304l-135.6952-27.1392 0 135.6968 135.6952 27.14L994.1232 50.6304zM994.1232 457.7208 994.1232 322.024l-135.6952-27.1392 0 135.6976L994.1232 457.7208z" p-id="10043" fill="#397DFC" data-spm-anchor-id="a313x.7781069.0.i4" class=""></path></svg>