<?xml version="1.0" standalone="no"?><!DOCTYPE svg PUBLIC "-//W3C//DTD SVG 1.1//EN" "http://www.w3.org/Graphics/SVG/1.1/DTD/svg11.dtd"><svg t="1620999815492" class="icon" viewBox="0 0 1024 1024" version="1.1" xmlns="http://www.w3.org/2000/svg" p-id="1979" width="20" height="20" xmlns:xlink="http://www.w3.org/1999/xlink"><defs><style type="text/css"></style></defs><path d="M517.075 1002.044a484.977 484.977 0 1 0-484.977-484.97 485 485 0 0 0 484.977 484.97z" fill="#FFFFFF" p-id="1980"></path><path d="M512 1024a512 512 0 1 1 512-512 512 512 0 0 1-512 512z m0-50.048A461.952 461.952 0 1 0 50.048 512 461.944 461.944 0 0 0 512 973.952z" fill="#3F99F7" p-id="1981"></path><path d="M155.67 822.136c34.952-94.584 149.512-209.731 252.575-209.731H615.77c103.093 0 208.128 127.119 243.08 221.74-86.686 89.322-222.667 160.957-346.842 160.791-124.176 0.166-269.651-83.448-356.337-172.77z m356.338-256.045a185.36 185.36 0 1 1 184.47-185.359A184.93 184.93 0 0 1 512 566.092z" fill="#3F99F7" p-id="1982"></path></svg>